<svg width="24" height="24" viewBox="0 0 24 24" xmlns="http://www.w3.org/2000/svg">
  <path d="M7.67615 21.1111C5.18888 21.1111 3.63884 19.5431 3.63884 16.9477V14.5505C3.63884 13.7935 2.97196 13.1086 1.85449 12.8022V11.1981C2.97196 10.8917 3.63884 10.2068 3.63884 9.43177V7.05264C3.63884 4.47525 5.18888 2.90718 7.67615 2.88916H8.95584V4.96189H7.67615C6.59473 4.96189 5.81971 5.79098 5.81971 7.05264V9.25153C5.81971 10.4231 5.24295 11.3603 4.39584 11.9911C5.24295 12.64 5.81971 13.5772 5.81971 14.7488V16.9477C5.81971 18.2093 6.59473 19.0384 7.67615 19.0384H8.95584V21.1111H7.67615Z" />
  <path d="M16.323 21.1111H15.0433V19.0384H16.323C17.4044 19.0384 18.1794 18.2093 18.1794 16.9477V14.7488C18.1794 13.5772 18.7562 12.64 19.6033 11.9911C18.7562 11.3603 18.1794 10.4231 18.1794 9.25153V7.05264C18.1794 5.79098 17.4044 4.96189 16.323 4.96189H15.0433V2.88916H16.323C18.8103 2.90718 20.3603 4.47525 20.3603 7.05264V9.43177C20.3603 10.2068 21.0272 10.8917 22.1447 11.1981V12.8022C21.0272 13.1086 20.3603 13.7935 20.3603 14.5505V16.9477C20.3603 19.5431 18.8103 21.1111 16.323 21.1111Z" />
  <circle cx="12" cy="12" r="1.5" />
</svg>