<svg xmlns="http://www.w3.org/2000/svg" width="24" height="24" viewBox="0 0 24 24">
  <path fill-rule="evenodd" d="M17.7248 18.9448C16.1691 20.2287 14.1746 21 12 21C9.74839 21 7.68987 20.1732 6.11157 18.8065C6.20154 18.5585 6.34136 18.3591 6.51402 18.1892C6.85164 17.8568 7.36552 17.5913 8.03 17.3975C9.37135 17.0062 10.9792 17 12 17L12.1756 16.9998C13.2155 16.9985 14.7126 16.9967 15.9793 17.3529C16.6401 17.5387 17.148 17.7994 17.4817 18.1318C17.6598 18.3092 17.8059 18.5235 17.8971 18.7991C17.8403 18.8484 17.7829 18.897 17.7248 18.9448ZM19.3257 17.2294C19.1975 17.0453 19.0528 16.8738 18.8933 16.7149C18.227 16.0512 17.3599 15.6635 16.5207 15.4275C15.8854 15.2489 15.2146 15.1444 14.5748 15.0834C15.4475 14.3069 16 13.0262 16 11.2C16 8.92158 14.4142 7 12 7C9.5791 7 8 8.75576 8 11C8 12.9516 8.57094 14.3018 9.47601 15.1028C8.81808 15.1715 8.12579 15.2862 7.47 15.4775C6.63448 15.7211 5.77336 16.1118 5.11098 16.7639C4.95712 16.9153 4.81665 17.0784 4.69123 17.253C3.62692 15.7748 3 13.9606 3 12C3 7.02944 7.02944 3 12 3C16.9706 3 21 7.02944 21 12C21 13.9502 20.3797 15.7555 19.3257 17.2294ZM20 19.5499C21.8598 17.5799 23 14.9231 23 12C23 5.92487 18.0751 1 12 1C5.92487 1 1 5.92487 1 12C1 14.9231 2.14015 17.5799 4 19.5499V19.5499C4.59712 20.1824 5.26842 20.7441 6 21.2211V21.2211C6.56012 21.5863 7.15557 21.9018 7.7801 22.1615C9.07957 22.7017 10.505 23 12 23C13.3289 23 14.6028 22.7643 15.7822 22.3325C16.5672 22.0451 17.3104 21.6707 18 21.2211V21.2211C18.7316 20.7441 19.4029 20.1824 20 19.5499V19.5499ZM10 11C10 9.8011 10.742 9 12 9C13.1412 9 14 9.8498 14 11.2C14 12.4859 13.6546 13.1536 13.3561 13.4799C13.0701 13.7925 12.6396 14 12 14C11.369 14 10.9506 13.7935 10.6644 13.467C10.3549 13.114 10 12.3872 10 11Z" />
</svg>
